<svg height="24" viewBox="0 0 24 24" width="24" xmlns="http://www.w3.org/2000/svg"><path d="m12 2c5.5228475 0 10 4.4771525 10 10s-4.4771525 10-10 10-10-4.4771525-10-10 4.4771525-10 10-10zm6.3207287 5.09547725-11.22525145 11.22525145c1.35450171 1.0525356 3.05632125 1.6792713 4.90452275 1.6792713 4.418278 0 8-3.581722 8-8 0-1.8482015-.6267357-3.55002104-1.6792713-4.90452275zm-6.3207287-3.09547725c-4.418278 0-8 3.581722-8 8 0 1.8482015.62673571 3.550021 1.67927125 4.9045228l11.22525155-11.22525155c-1.3545018-1.05253554-3.0563213-1.67927125-4.9045228-1.67927125z" fill-rule="evenodd"/></svg>